<svg width="186" height="28" viewBox="0 0 186 28" fill="none" xmlns="http://www.w3.org/2000/svg">
<g clip-path="url(#clip0_302_9306)">
<path d="M33.9845 22.8268C32.7756 22.8268 31.695 22.6986 30.7426 22.4421C29.8085 22.204 29.0118 21.8377 28.3524 21.3432C27.693 20.8487 27.1894 20.2443 26.8414 19.53C26.4934 18.7973 26.3102 17.9548 26.2919 17.0024L29.836 16.0134C29.8543 16.8559 30.0466 17.5519 30.4129 18.1013C30.7792 18.6508 31.2921 19.0538 31.9514 19.3102C32.6108 19.5666 33.3526 19.6948 34.1768 19.6948C34.946 19.6948 35.5962 19.6032 36.1274 19.4201C36.6585 19.2369 37.0615 18.9805 37.3362 18.6508C37.6293 18.3211 37.7758 17.9548 37.7758 17.5519C37.7758 17.0757 37.5926 16.691 37.2263 16.398C36.86 16.0866 36.3655 15.8302 35.7428 15.6287C35.12 15.4273 34.4149 15.235 33.6273 15.0518C32.7665 14.832 31.9148 14.5939 31.0723 14.3375C30.2481 14.0811 29.488 13.7605 28.792 13.3759C28.1143 12.973 27.574 12.451 27.1711 11.8099C26.7681 11.1689 26.5666 10.363 26.5666 9.39228C26.5666 8.27503 26.8505 7.31346 27.4183 6.50757C27.9861 5.68337 28.8011 5.05148 29.8634 4.61191C30.9258 4.15402 32.1895 3.92507 33.6548 3.92507C35.1383 3.92507 36.4204 4.15402 37.5011 4.61191C38.6 5.0698 39.4517 5.72916 40.0561 6.58999C40.6605 7.43251 40.9535 8.44902 40.9352 9.63954L37.3362 10.4912C37.3545 9.92343 37.2721 9.42891 37.0889 9.00765C36.9241 8.56808 36.6768 8.20176 36.3472 7.90871C36.0358 7.61566 35.642 7.39588 35.1658 7.24935C34.7079 7.10283 34.1859 7.02956 33.5998 7.02956C32.9038 7.02956 32.3086 7.12114 31.8141 7.3043C31.3379 7.46914 30.9715 7.70724 30.7151 8.01861C30.4587 8.32997 30.3305 8.68713 30.3305 9.09007C30.3305 9.58459 30.5228 9.98753 30.9074 10.2989C31.2921 10.5919 31.8049 10.8392 32.4459 11.0407C33.1053 11.2422 33.8379 11.4436 34.6438 11.6451C35.4314 11.8283 36.2281 12.048 37.034 12.3045C37.8582 12.5426 38.6091 12.8631 39.2868 13.266C39.9828 13.669 40.5414 14.2093 40.9627 14.887C41.384 15.5463 41.5946 16.3797 41.5946 17.387C41.5946 18.5226 41.2924 19.4933 40.688 20.2992C40.1019 21.1051 39.241 21.7278 38.1055 22.1674C36.9699 22.607 35.5962 22.8268 33.9845 22.8268ZM48.2693 22.8268C47.5733 22.8268 46.9598 22.726 46.4286 22.5246C45.8975 22.3414 45.4304 22.0575 45.0275 21.6729C44.6428 21.2883 44.3223 20.8212 44.0659 20.2717C43.8095 19.704 43.6172 19.0538 43.489 18.3211C43.3791 17.5702 43.3241 16.746 43.3241 15.8485V8.01861H47.2803V15.1342C47.2803 15.5372 47.2894 15.995 47.3078 16.5079C47.3444 17.0024 47.436 17.4786 47.5825 17.9365C47.729 18.3761 47.9671 18.7424 48.2968 19.0354C48.6265 19.3285 49.0844 19.475 49.6705 19.475C50.165 19.475 50.6046 19.356 50.9892 19.1179C51.3738 18.8614 51.6943 18.4951 51.9508 18.0189C52.2255 17.5427 52.4361 16.9749 52.5827 16.3156C52.7292 15.6562 52.8116 14.9144 52.8299 14.0902V8.01861H56.7861V16.2606V22.4421H53.4893L53.5442 17.4969H53.1321C52.9123 18.7424 52.5918 19.7589 52.1706 20.5465C51.7676 21.334 51.2456 21.911 50.6046 22.2773C49.9635 22.6436 49.1851 22.8268 48.2693 22.8268ZM67.9047 22.8268C67.0072 22.8268 66.2288 22.6436 65.5694 22.2773C64.9101 21.911 64.3697 21.3798 63.9485 20.6838C63.5272 19.9878 63.2342 19.1362 63.0693 18.1288H62.6572V22.4421H59.333V15.9309V2.99098H63.2891V7.49661C63.2891 7.9545 63.2617 8.44902 63.2067 8.98018C63.1518 9.51133 63.0785 10.0608 62.9869 10.6286C62.8953 11.1964 62.7854 11.7916 62.6572 12.4144H63.1518C63.3715 11.3887 63.6829 10.5278 64.0859 9.83185C64.5071 9.11754 65.0383 8.57723 65.6793 8.21092C66.3387 7.84461 67.1079 7.66145 67.9871 7.66145C69.1593 7.66145 70.1666 7.96366 71.0091 8.56808C71.8517 9.15417 72.511 10.015 72.9872 11.1506C73.4634 12.2678 73.7015 13.6232 73.7015 15.2166C73.7015 16.8284 73.4543 18.2021 72.9598 19.3376C72.4836 20.4732 71.815 21.3432 70.9542 21.9476C70.0934 22.5337 69.0769 22.8268 67.9047 22.8268ZM66.531 19.6124C67.172 19.6124 67.7215 19.4292 68.1794 19.0629C68.6373 18.6966 68.9853 18.1929 69.2234 17.5519C69.4798 16.8925 69.608 16.1324 69.608 15.2716C69.608 14.4107 69.489 13.6598 69.2508 13.0188C69.0127 12.3594 68.6648 11.8466 68.2069 11.4803C67.7673 11.0956 67.227 10.9033 66.5859 10.9033C66.183 10.9033 65.8075 10.9857 65.4595 11.1506C65.1115 11.2971 64.8002 11.5077 64.5254 11.7825C64.269 12.0572 64.0401 12.3686 63.8386 12.7166C63.6554 13.0646 63.5089 13.44 63.399 13.843C63.3074 14.2459 63.2617 14.6489 63.2617 15.0518V15.4639C63.2617 15.9584 63.3258 16.4529 63.454 16.9475C63.6005 17.442 63.8111 17.8907 64.0859 18.2937C64.3789 18.6783 64.7269 18.9988 65.1298 19.2552C65.5328 19.4933 65.9998 19.6124 66.531 19.6124ZM81.6459 22.8268C80.6934 22.8268 79.8143 22.726 79.0084 22.5246C78.2208 22.3414 77.534 22.0667 76.9479 21.7004C76.3801 21.334 75.9222 20.867 75.5742 20.2992C75.2446 19.7314 75.0522 19.0812 74.9973 18.3486L78.1842 17.442C78.2392 17.9365 78.4132 18.3761 78.7062 18.7607C79.0176 19.127 79.4297 19.4201 79.9425 19.6399C80.4737 19.8413 81.1147 19.9421 81.8656 19.9421C82.6532 19.9421 83.2759 19.823 83.7338 19.5849C84.1917 19.3285 84.4207 18.9622 84.4207 18.486C84.4207 18.1563 84.3016 17.8907 84.0635 17.6892C83.8254 17.4878 83.4683 17.3138 82.9921 17.1672C82.5342 17.0207 81.9481 16.8742 81.2338 16.7277C80.4645 16.5628 79.7227 16.3797 79.0084 16.1782C78.3124 15.9767 77.6714 15.7112 77.0853 15.3815C76.5175 15.0518 76.0596 14.6305 75.7116 14.1177C75.3819 13.5865 75.2171 12.9272 75.2171 12.1396C75.2171 11.2238 75.4552 10.4363 75.9314 9.7769C76.4259 9.09923 77.1311 8.57723 78.0468 8.21092C78.9809 7.82629 80.0799 7.63398 81.3436 7.63398C82.5158 7.63398 83.5598 7.79882 84.4756 8.1285C85.3914 8.45818 86.1332 8.9527 86.701 9.61206C87.2687 10.2714 87.5893 11.0956 87.6625 12.0847L84.3932 12.8814C84.3749 12.3869 84.2284 11.9656 83.9536 11.6176C83.6789 11.2696 83.3126 11.004 82.8547 10.8209C82.4151 10.6377 81.8931 10.5462 81.2887 10.5462C80.5378 10.5462 79.9517 10.6744 79.5304 10.9308C79.1091 11.1872 78.8985 11.5352 78.8985 11.9748C78.8985 12.3045 79.0267 12.5792 79.2831 12.799C79.5579 13.0188 79.9425 13.2019 80.437 13.3484C80.9499 13.4767 81.5634 13.614 82.2777 13.7605C82.9737 13.9071 83.6606 14.0811 84.3382 14.2825C85.0342 14.4657 85.6661 14.7221 86.2339 15.0518C86.8017 15.3632 87.2504 15.7844 87.5801 16.3156C87.9281 16.8284 88.1021 17.4878 88.1021 18.2937C88.1021 19.2278 87.8457 20.0336 87.3328 20.7113C86.8383 21.389 86.1057 21.911 85.135 22.2773C84.1826 22.6436 83.0195 22.8268 81.6459 22.8268ZM96.6768 22.8268C95.4313 22.8268 94.3416 22.6436 93.4075 22.2773C92.4917 21.8927 91.7224 21.3707 91.0997 20.7113C90.4953 20.0336 90.0374 19.2461 89.726 18.3486C89.433 17.4511 89.2865 16.4621 89.2865 15.3815C89.2865 14.2825 89.4421 13.266 89.7535 12.3319C90.0649 11.3978 90.5228 10.5828 91.1272 9.8868C91.7316 9.17249 92.4825 8.62302 93.38 8.23839C94.2958 7.83545 95.3581 7.63398 96.5669 7.63398C97.5193 7.63398 98.3618 7.76219 99.0945 8.01861C99.8454 8.27502 100.477 8.63218 100.99 9.09007C101.503 9.54796 101.906 10.0883 102.199 10.711C102.492 11.3154 102.666 11.9748 102.721 12.6891L99.1494 13.5682C99.1128 12.9455 98.9754 12.4235 98.7373 12.0022C98.5175 11.581 98.2062 11.2696 97.8032 11.0682C97.4003 10.8484 96.9332 10.7385 96.4021 10.7385C95.9625 10.7385 95.5504 10.8301 95.1658 11.0132C94.7811 11.178 94.4515 11.4436 94.1767 11.8099C93.902 12.1579 93.6822 12.6158 93.5174 13.1836C93.3708 13.7514 93.2976 14.4291 93.2976 15.2166C93.2976 16.2789 93.4349 17.1489 93.7097 17.8266C93.9844 18.5043 94.3782 19.0171 94.891 19.3651C95.4039 19.6948 96.0174 19.8596 96.7318 19.8596C97.4461 19.8596 98.0138 19.704 98.4351 19.3926C98.8564 19.0812 99.1586 18.6966 99.3417 18.2387C99.5432 17.7625 99.6439 17.268 99.6439 16.7551L103.188 17.3321C103.17 18.083 103.023 18.7882 102.748 19.4475C102.474 20.1069 102.071 20.693 101.54 21.2058C101.008 21.7187 100.34 22.1216 99.534 22.4147C98.7282 22.6894 97.7757 22.8268 96.6768 22.8268ZM104.636 22.4421V15.2441V8.01861H107.96L107.933 13.2935H108.373C108.501 11.9565 108.73 10.8758 109.059 10.0516C109.407 9.22744 109.874 8.63218 110.461 8.26587C111.065 7.88124 111.788 7.68893 112.631 7.68893C112.851 7.68893 113.08 7.70724 113.318 7.74387C113.574 7.7805 113.84 7.85377 114.114 7.96366L113.95 12.1946C113.638 12.048 113.309 11.9381 112.961 11.8649C112.631 11.7916 112.329 11.755 112.054 11.755C111.358 11.755 110.763 11.929 110.268 12.277C109.792 12.625 109.407 13.1287 109.114 13.788C108.84 14.4474 108.666 15.2533 108.592 16.2057V22.4421H104.636ZM115.543 22.4421V8.01861H119.472V22.4421H115.543ZM117.521 6.17789C116.752 6.17789 116.156 6.02221 115.735 5.71084C115.332 5.38116 115.131 4.90496 115.131 4.28223C115.131 3.64118 115.332 3.16497 115.735 2.85361C116.156 2.52393 116.752 2.35909 117.521 2.35909C118.309 2.35909 118.904 2.52393 119.307 2.85361C119.71 3.18329 119.911 3.65949 119.911 4.28223C119.911 4.88664 119.71 5.35369 119.307 5.68337C118.904 6.01305 118.309 6.17789 117.521 6.17789ZM122.05 26.8379V14.6946V8.01861H125.401L125.374 12.1946L125.758 12.222C125.942 11.2147 126.244 10.3722 126.665 9.69448C127.086 8.99849 127.617 8.48565 128.259 8.15597C128.918 7.80798 129.678 7.63398 130.539 7.63398C131.766 7.63398 132.81 7.93619 133.671 8.5406C134.55 9.14502 135.218 10.015 135.676 11.1506C136.153 12.2861 136.391 13.6598 136.391 15.2716C136.391 16.8101 136.171 18.1471 135.731 19.2827C135.292 20.4183 134.642 21.2974 133.781 21.9201C132.938 22.5246 131.913 22.8268 130.704 22.8268C129.806 22.8268 129.037 22.6528 128.396 22.3048C127.755 21.9385 127.224 21.4165 126.802 20.7388C126.4 20.0611 126.079 19.2461 125.841 18.2937H125.429C125.52 18.8248 125.612 19.3651 125.704 19.9146C125.795 20.4457 125.868 20.9677 125.923 21.4806C125.978 21.9934 126.006 22.4879 126.006 22.9641V26.8379H122.05ZM129.303 19.6124C129.944 19.6124 130.484 19.4292 130.923 19.0629C131.381 18.6966 131.72 18.1929 131.94 17.5519C132.178 16.8925 132.297 16.1416 132.297 15.2991C132.297 14.4382 132.178 13.6873 131.94 13.0462C131.702 12.3869 131.354 11.874 130.896 11.5077C130.438 11.1414 129.889 10.9583 129.248 10.9583C128.716 10.9583 128.249 11.0773 127.846 11.3154C127.444 11.5535 127.096 11.874 126.802 12.277C126.528 12.6616 126.317 13.1012 126.171 13.5957C126.042 14.0902 125.978 14.5939 125.978 15.1067V15.5188C125.978 15.9218 126.024 16.3247 126.116 16.7277C126.226 17.1123 126.372 17.4786 126.555 17.8266C126.757 18.1746 126.986 18.486 127.242 18.7607C127.517 19.0171 127.828 19.2278 128.176 19.3926C128.524 19.5391 128.9 19.6124 129.303 19.6124ZM143.734 22.7718C142.874 22.7718 142.141 22.6528 141.537 22.4147C140.932 22.1766 140.438 21.8286 140.053 21.3707C139.687 20.9128 139.421 20.3633 139.256 19.7223C139.091 19.0629 139.009 18.3211 139.009 17.4969V11.1231H137.058L137.113 8.21092H138.13C138.844 8.17429 139.366 8.00945 139.696 7.7164C140.026 7.40503 140.227 6.91967 140.3 6.26031L140.548 4.77675H142.828V8.01861H146.399V11.233H142.828V17.2771C142.828 18.0098 143.002 18.5134 143.35 18.7882C143.716 19.0629 144.165 19.2003 144.696 19.2003C145.007 19.2003 145.319 19.1636 145.63 19.0904C145.941 18.9988 146.225 18.8706 146.482 18.7058V22.3597C145.914 22.5246 145.401 22.6345 144.943 22.6894C144.485 22.7443 144.082 22.7718 143.734 22.7718ZM148.317 22.4421V8.01861H152.245V22.4421H148.317ZM150.295 6.17789C149.526 6.17789 148.93 6.02221 148.509 5.71084C148.106 5.38116 147.905 4.90496 147.905 4.28223C147.905 3.64118 148.106 3.16497 148.509 2.85361C148.93 2.52393 149.526 2.35909 150.295 2.35909C151.082 2.35909 151.678 2.52393 152.081 2.85361C152.483 3.18329 152.685 3.65949 152.685 4.28223C152.685 4.88664 152.483 5.35369 152.081 5.68337C151.678 6.01305 151.082 6.17789 150.295 6.17789ZM161.39 22.8268C159.979 22.8268 158.725 22.5429 157.626 21.9751C156.545 21.4073 155.693 20.5648 155.071 19.4475C154.448 18.312 154.137 16.9017 154.137 15.2166C154.137 13.495 154.448 12.0755 155.071 10.9583C155.712 9.84101 156.582 9.00765 157.681 8.45818C158.78 7.90871 160.025 7.63398 161.417 7.63398C162.827 7.63398 164.082 7.91787 165.181 8.48565C166.28 9.05344 167.131 9.89596 167.736 11.0132C168.359 12.1305 168.67 13.5408 168.67 15.2441C168.67 16.9658 168.349 18.3944 167.708 19.53C167.086 20.6472 166.225 21.4806 165.126 22.03C164.027 22.5612 162.782 22.8268 161.39 22.8268ZM161.527 19.8871C161.966 19.8871 162.379 19.8047 162.763 19.6399C163.148 19.475 163.478 19.2186 163.752 18.8706C164.045 18.5226 164.274 18.0647 164.439 17.4969C164.604 16.9291 164.686 16.2515 164.686 15.4639C164.686 14.6214 164.595 13.9071 164.412 13.321C164.247 12.7166 164.009 12.222 163.697 11.8374C163.386 11.4528 163.02 11.1689 162.598 10.9857C162.195 10.8026 161.756 10.711 161.28 10.711C160.84 10.711 160.428 10.7934 160.043 10.9583C159.677 11.1231 159.347 11.3887 159.054 11.755C158.761 12.103 158.532 12.5609 158.367 13.1287C158.203 13.6781 158.12 14.3558 158.12 15.1617C158.12 15.9859 158.203 16.7002 158.367 17.3046C158.551 17.909 158.798 18.4035 159.109 18.7882C159.421 19.1545 159.778 19.4292 160.181 19.6124C160.602 19.7955 161.051 19.8871 161.527 19.8871ZM170.559 22.4421V14.0078V8.01861H173.829L173.774 12.9638H174.213C174.415 11.6817 174.735 10.6561 175.175 9.8868C175.633 9.09923 176.201 8.53144 176.878 8.18345C177.556 7.81713 178.344 7.63398 179.241 7.63398C180.065 7.63398 180.77 7.7805 181.356 8.07355C181.943 8.34829 182.419 8.73292 182.785 9.22744C183.151 9.72196 183.435 10.2714 183.637 10.8758C183.857 11.4803 184.003 12.1121 184.076 12.7715C184.168 13.4309 184.214 14.0811 184.214 14.7221V22.4421H180.23V15.1617C180.23 14.8137 180.212 14.4107 180.175 13.9529C180.138 13.4767 180.047 13.0188 179.9 12.5792C179.754 12.1213 179.507 11.7458 179.159 11.4528C178.829 11.1414 178.362 10.9857 177.757 10.9857C177.061 10.9857 176.466 11.2147 175.972 11.6726C175.495 12.1121 175.129 12.744 174.873 13.5682C174.635 14.3924 174.506 15.3723 174.488 16.5079V22.4421H170.559Z" fill="white"/>
<path d="M9.89042 4.43164V4.43164C10.3418 9.69568 14.5168 13.8707 19.7808 14.3221V14.3221V14.3221C14.5168 14.7735 10.3418 18.9484 9.89042 24.2125V24.2125V24.2125C9.43902 18.9484 5.26403 14.7735 0 14.3221V14.3221V14.3221C5.26403 13.8707 9.43902 9.69568 9.89042 4.43164V4.43164Z" fill="white"/>
</g>
<defs>
<clipPath id="clip0_302_9306">
<rect width="186" height="28" fill="white"/>
</clipPath>
</defs>
</svg>
